<?xml version="1.0" standalone="no"?><!DOCTYPE svg PUBLIC "-//W3C//DTD SVG 1.1//EN" "http://www.w3.org/Graphics/SVG/1.1/DTD/svg11.dtd"><svg t="1586738669734" class="icon" viewBox="0 0 1024 1024" version="1.1" xmlns="http://www.w3.org/2000/svg" p-id="10104" xmlns:xlink="http://www.w3.org/1999/xlink" width="128" height="128"><defs><style type="text/css"></style></defs><path d="M443.829527 908.911709c21.615709 0 32.265309-7.875491 35.84-17.082182 33.9968-87.821964 95.837091-525.507491 120.441018-573.151418 23.403055-45.335273 78.270836-43.817891 164.594037 4.542836a9.309091 9.309091 0 0 0 13.153745-4.561454l43.473455-104.950691a4.971055 4.971055 0 0 0-2.364509-6.3488C745.081018 170.207418 659.316364 148.945455 567.854545 148.945455c-58.181818 0-114.064291 8.6016-166.036945 24.427054-59.643345 18.152727-99.933091 48.407273-127.134255 87.095855-2.448291 3.490909-3.872582 12.9024 5.790255 12.9024 25.786182 0 97.475491-12.9024 123.392-17.063564 26.000291-4.170473 70.032291-11.785309 79.527564 21.578473 12.4928 43.948218-58.647273 312.180364-81.575564 381.561018-22.984145 69.501673-41.900218 141.330618-51.181382 180.596364-2.448291 10.333091 0 32.702836 12.045964 42.635636 11.776 9.681455 50.408727 26.233018 81.147345 26.233018z" fill="#FFAE00" p-id="10105"></path><path d="M781.898473 175.522909l68.552145 29.100218-60.155345 141.702982-68.552146-29.090909z" fill="#D8D8D8" p-id="10106"></path><path d="M443.829527 908.911709c21.615709 0 32.265309-7.875491 35.84-17.082182 15.304145-39.563636 44.301964-182.541964 86.974837-428.944291l-104.187346-32.377018c-31.874327 126.761891-52.093673 203.077818-60.639418 228.938473-22.984145 69.501673-41.900218 141.330618-51.181382 180.596364-2.448291 10.333091 0 32.702836 12.045964 42.635636 11.776 9.681455 50.408727 26.233018 81.147345 26.233018z" fill="#42434D" p-id="10107"></path><path d="M83.781818 584.182691v-71.307636l156.038982-113.3568 43.771345 60.248436-120.887854 87.821964 126.007854 84.992-41.639563 61.7472L83.781818 584.182691zM940.348509 509.654109v71.307636L784.318836 694.327855l-43.780654-60.248437 120.887854-87.831273L735.418182 461.256145l41.648873-61.73789 163.281454 110.135854z" fill="#D8D8D8" p-id="10108"></path></svg>